<svg width="103" height="32" viewBox="0 0 103 32" fill="none" xmlns="http://www.w3.org/2000/svg">
<g clip-path="url(#clip0_6_12236)">
<path d="M29.5262 22.679C29.3646 22.289 29.2132 21.879 29.0516 21.529L28.3044 19.859L28.2741 19.829C26.0525 15.029 23.6795 10.149 21.165 5.34897L21.0641 5.14897C20.8116 4.67897 20.5592 4.15897 20.2966 3.67897C19.9735 3.10897 19.6604 2.49897 19.1454 1.91897C18.6434 1.3121 18.0117 0.823156 17.2957 0.487423C16.5797 0.151689 15.7974 -0.0224609 15.0052 -0.0224609C14.2131 -0.0224609 13.4308 0.151689 12.7148 0.487423C11.9988 0.823156 11.367 1.3121 10.865 1.91897C10.3904 2.49897 10.037 3.10897 9.71387 3.67897C9.46141 4.19897 9.20896 4.70897 8.94641 5.17897L8.84543 5.37897C6.37141 10.179 3.95798 15.059 1.73641 19.859L1.67583 19.919C1.45367 20.439 1.19112 20.979 0.938669 21.559C0.777101 21.909 0.615532 22.289 0.453963 22.709C0.0177611 23.8088 -0.121532 25.0021 0.0498119 26.1715C0.221156 27.3408 0.697223 28.4457 1.43109 29.3774C2.16497 30.309 3.13131 31.0352 4.2349 31.4844C5.33848 31.9336 6.54121 32.0903 7.72455 31.939C8.85904 31.7911 9.95145 31.4169 10.9357 30.839C12.2485 30.109 13.5107 29.049 14.9245 27.519C16.3382 29.049 17.6307 30.109 18.9132 30.849C20.1465 31.5658 21.5431 31.9615 22.9726 31.999C24.628 32.0058 26.23 31.4193 27.4829 30.3477C28.7357 29.2761 29.5547 27.7919 29.7888 26.169C30.0592 25.0027 29.9677 23.7828 29.5262 22.669V22.679ZM15.0254 24.339C13.2886 22.139 12.1576 20.119 11.7739 18.389C11.6149 17.7479 11.5806 17.0827 11.6729 16.429C11.7436 15.919 11.9354 15.469 12.198 15.089C12.8039 14.219 13.8642 13.679 15.0254 13.679C15.5769 13.6623 16.124 13.7815 16.6175 14.0258C17.111 14.2702 17.5355 14.632 17.8529 15.079C18.1154 15.479 18.3073 15.919 18.3679 16.429C18.4689 17.009 18.4285 17.679 18.2669 18.389C17.8832 20.089 16.7522 22.129 15.0254 24.339ZM27.8903 25.819C27.7756 26.6429 27.4449 27.4227 26.9311 28.0807C26.4173 28.7386 25.7383 29.2518 24.9619 29.569C24.1945 29.889 23.3462 29.979 22.5182 29.889C21.7103 29.789 20.9025 29.529 20.0745 29.049C18.6996 28.2075 17.4634 27.162 16.4089 25.949C18.5295 23.349 19.8119 20.979 20.2966 18.869C20.5289 17.869 20.5592 16.969 20.4582 16.139C20.3321 15.3523 20.0358 14.6018 19.5897 13.939C19.0804 13.2202 18.4005 12.6364 17.61 12.2389C16.8194 11.8413 15.9422 11.6422 15.0557 11.659C13.1876 11.659 11.5214 12.519 10.5116 13.929C10.057 14.5901 9.76325 15.3466 9.65328 16.139C9.522 16.979 9.5523 17.909 9.81485 18.869C10.2996 20.979 11.6123 23.379 13.7026 25.969C12.666 27.2051 11.4269 28.2598 10.037 29.089C9.19886 29.569 8.40112 29.819 7.59328 29.919C6.33696 30.0783 5.06791 29.7402 4.06195 28.9781C3.056 28.216 2.39446 27.0914 2.22112 25.849C2.12014 25.049 2.19083 24.249 2.51396 23.349C2.61494 23.029 2.76641 22.709 2.92798 22.329C3.15014 21.809 3.41269 21.269 3.66514 20.729L3.70553 20.659C5.88671 15.889 8.26985 11.019 10.7439 6.24897L10.8448 6.04897C11.0973 5.56897 11.3497 5.05897 11.6123 4.57897C11.8748 4.06897 12.1576 3.57897 12.5211 3.17897C12.8358 2.80699 13.229 2.50784 13.673 2.30258C14.117 2.09733 14.6011 1.99096 15.0911 1.99096C15.5811 1.99096 16.0651 2.09733 16.5092 2.30258C16.9532 2.50784 17.3464 2.80699 17.661 3.17897C18.0145 3.57897 18.3073 4.06897 18.5698 4.57897C18.8223 5.05897 19.0747 5.57897 19.3373 6.04897L19.4383 6.24897C21.9022 11.019 24.2853 15.889 26.5069 20.659L26.5372 20.689C26.7997 21.209 27.0219 21.789 27.2744 22.289C27.4359 22.679 27.5975 22.989 27.6985 23.319C27.8903 24.219 27.9913 25.019 27.8903 25.819V25.819ZM41.9468 24.119C41.1859 24.13 40.4322 23.9712 39.7417 23.6544C39.0512 23.3376 38.4416 22.8709 37.9581 22.289C36.8716 21.0489 36.295 19.45 36.3424 17.809C36.3258 16.1322 36.921 14.5058 38.0187 13.229C38.5264 12.6396 39.1584 12.1676 39.8703 11.8462C40.5821 11.5249 41.3564 11.362 42.1387 11.369C42.8747 11.349 43.6039 11.5148 44.2575 11.8506C44.911 12.1865 45.4677 12.6815 45.8749 13.289L45.9759 11.719H48.9246V23.799H45.9658L45.8648 22.039C45.4449 22.6876 44.8646 23.2192 44.1788 23.5833C43.4931 23.9473 42.7248 24.1317 41.9468 24.119V24.119ZM42.7143 21.239C43.2999 21.239 43.8149 21.079 44.2996 20.789C44.744 20.469 45.1075 20.049 45.3902 19.539C45.6427 19.029 45.774 18.419 45.774 17.739C45.8133 17.1484 45.6972 16.5578 45.437 16.0249C45.1769 15.492 44.7815 15.0352 44.2896 14.699C43.8169 14.4073 43.2711 14.2527 42.7143 14.2527C42.1574 14.2527 41.6116 14.4073 41.139 14.699C40.6946 15.019 40.3311 15.439 40.0484 15.949C39.7813 16.5114 39.65 17.1276 39.6646 17.749C39.6253 18.3396 39.7414 18.9302 40.0016 19.463C40.2618 19.9959 40.6571 20.4528 41.1491 20.789C41.6237 21.079 42.1387 21.239 42.7143 21.239ZM53.9736 8.45897C53.9736 8.80897 53.913 9.12897 53.7514 9.38897C53.5898 9.63897 53.3677 9.86897 53.0748 10.029C52.782 10.189 52.469 10.249 52.1458 10.249C51.8227 10.249 51.4995 10.189 51.2067 10.029C50.9297 9.87628 50.6968 9.65596 50.5301 9.38897C50.3738 9.1041 50.2971 8.78303 50.308 8.45897C50.308 8.09897 50.3787 7.77897 50.5301 7.52897C50.6917 7.22897 50.924 7.04897 51.2067 6.88897C51.4995 6.72897 51.8126 6.65897 52.1458 6.65897C52.4673 6.65163 52.7851 6.72702 53.0683 6.87776C53.3515 7.0285 53.5904 7.24944 53.7615 7.51897C53.9085 7.81052 53.9813 8.13321 53.9736 8.45897V8.45897ZM50.5402 23.759V11.699H53.7514V23.779H50.5301L50.5402 23.759ZM62.3347 14.859V14.899C62.1833 14.829 61.9813 14.799 61.8298 14.769C61.6279 14.729 61.4663 14.729 61.2745 14.729C60.3757 14.729 59.6992 14.989 59.2548 15.529C58.7701 16.079 58.548 16.849 58.548 17.839V23.769H55.3267V11.689H58.2854L58.3864 13.519C58.7095 12.879 59.0933 12.399 59.6386 12.039C60.181 11.6892 60.8195 11.5145 61.4663 11.539C61.6986 11.539 61.9207 11.559 62.1126 11.599C62.2136 11.629 62.2742 11.629 62.3347 11.659V14.859V14.859ZM63.6273 23.759V6.73897H66.8385V13.239C67.2929 12.659 67.8079 12.209 68.4542 11.859C69.4773 11.3622 70.6396 11.2213 71.7535 11.459C72.8674 11.6966 73.868 12.299 74.5938 13.169C75.6827 14.4116 76.2594 16.0145 76.2095 17.659C76.2261 19.3358 75.6308 20.9621 74.5332 22.239C74.0254 22.8283 73.3934 23.3003 72.6816 23.6217C71.9698 23.9431 71.1955 24.106 70.4132 24.099C69.6771 24.1189 68.948 23.9532 68.2944 23.6173C67.6408 23.2814 67.0842 22.7865 66.6769 22.179L66.5759 23.749L63.6273 23.779V23.759ZM69.8376 21.239C70.4132 21.239 70.9282 21.079 71.4129 20.789C71.8572 20.469 72.2207 20.049 72.5035 19.539C72.766 19.029 72.8872 18.419 72.8872 17.739C72.8872 17.069 72.766 16.459 72.5035 15.949C72.2383 15.4572 71.8657 15.0302 71.4129 14.699C70.9402 14.4073 70.3945 14.2527 69.8376 14.2527C69.2807 14.2527 68.735 14.4073 68.2623 14.699C67.8079 15.019 67.4545 15.439 67.1616 15.949C66.8946 16.5114 66.7632 17.1276 66.7779 17.749C66.7385 18.3396 66.8546 18.9302 67.1148 19.463C67.375 19.9959 67.7704 20.4528 68.2623 20.789C68.7369 21.079 69.2519 21.239 69.8376 21.239ZM77.4212 23.769V11.689H80.3799L80.4809 13.259C80.8527 12.6572 81.3802 12.1646 82.0086 11.8324C82.6371 11.5001 83.3438 11.3401 84.0556 11.369C84.8696 11.355 85.6697 11.5791 86.3558 12.0131C87.0419 12.4471 87.5836 13.0717 87.9131 13.809C88.2665 14.569 88.4584 15.509 88.4584 16.559V23.799H85.2371V16.979C85.2371 16.139 85.0452 15.479 84.6615 14.989C84.2778 14.509 83.7527 14.249 83.0862 14.249C82.6015 14.249 82.1774 14.349 81.8038 14.569C81.4503 14.799 81.1575 15.089 80.9353 15.499C80.7107 15.9134 80.5993 16.3788 80.6122 16.849V23.769H77.4212V23.769ZM90.064 23.769V6.72897H93.2852V13.229C93.7216 12.6457 94.2892 12.1712 94.943 11.8432C95.5968 11.5151 96.3188 11.3425 97.0518 11.339C97.8127 11.3279 98.5664 11.4867 99.2569 11.8035C99.9474 12.1203 100.557 12.587 101.041 13.169C102.122 14.4115 102.694 16.0095 102.646 17.649C102.664 19.3259 102.068 20.9526 100.97 22.229C100.462 22.8183 99.8301 23.2903 99.1183 23.6117C98.4064 23.9331 97.6321 24.096 96.8498 24.089C96.1138 24.1089 95.3847 23.9432 94.7311 23.6073C94.0775 23.2714 93.5209 22.7765 93.1136 22.169L93.0227 23.739L90.064 23.769V23.769ZM96.3046 21.239C96.8902 21.239 97.4052 21.079 97.8798 20.789C98.3343 20.469 98.6877 20.049 98.9805 19.539C99.233 19.029 99.3643 18.419 99.3643 17.739C99.4036 17.1484 99.2875 16.5578 99.0273 16.0249C98.7671 15.492 98.3718 15.0352 97.8798 14.699C97.4072 14.4073 96.8614 14.2527 96.3046 14.2527C95.7477 14.2527 95.2019 14.4073 94.7293 14.699C94.2849 15.019 93.9214 15.439 93.6387 15.949C93.3568 16.5064 93.2247 17.1263 93.2549 17.749C93.2156 18.3396 93.3317 18.9302 93.5919 19.463C93.8521 19.9959 94.2474 20.4528 94.7394 20.789C95.214 21.079 95.6987 21.239 96.3046 21.239Z" fill="#FF385C"/>
</g>
<defs>
<clipPath id="clip0_6_12236">
<rect width="103" height="32" fill="white"/>
</clipPath>
</defs>
</svg>
