<svg width="180" height="180" viewBox="0 0 180 180" fill="none" xmlns="http://www.w3.org/2000/svg">
<circle cx="90" cy="90" r="90" fill="#31543B"/>
<path d="M117.636 111.177L137.143 121.033C132.389 127.214 126.341 132.158 118.999 135.866C111.728 139.575 103.827 141.429 95.2969 141.429C85.6481 141.429 76.8383 139.119 68.8675 134.5C60.9667 129.881 54.639 123.7 49.8845 115.958C45.2 108.151 42.8577 99.5313 42.8577 90.0978C42.8577 82.9414 44.2211 76.2729 46.9479 70.0924C49.6748 63.8468 53.4154 58.3819 58.1699 53.6977C62.9943 48.9484 68.5878 45.2401 74.9505 42.5727C81.3131 39.9053 88.0952 38.5717 95.2969 38.5717C103.827 38.5717 111.728 40.4258 118.999 44.1341C126.341 47.8425 132.389 52.8194 137.143 59.065L117.636 68.9213C114.699 65.6684 111.273 63.1962 107.358 61.5047C103.442 59.7481 99.4221 58.8698 95.2969 58.8698C89.5635 58.8698 84.3546 60.3336 79.67 63.2613C75.0553 66.1238 71.3846 69.9297 68.6578 74.679C66.0008 79.3632 64.6724 84.5028 64.6724 90.0978C64.6724 95.6278 66.0358 100.767 68.7626 105.517C71.4895 110.201 75.1602 113.974 79.7749 116.837C84.4594 119.699 89.6335 121.131 95.2969 121.131C99.6319 121.131 103.757 120.22 107.673 118.398C111.588 116.577 114.909 114.169 117.636 111.177Z" fill="white"/>
</svg>
