<svg xmlns="http://www.w3.org/2000/svg" width="120" height="52" fill="none" viewBox="0 0 120 52"><circle cx="18" cy="26" r="18" fill="#31543B"/><path fill="#fff" d="M23.5271 30.2352L27.4286 32.2065C26.4777 33.4426 25.2681 34.4315 23.7998 35.1732C22.3454 35.9148 20.7653 36.2857 19.0593 36.2857C17.1295 36.2857 15.3675 35.8237 13.7734 34.8999C12.1932 33.9761 10.9277 32.74 9.97678 31.1916C9.03987 29.6302 8.57141 27.9062 8.57141 26.0195C8.57141 24.5882 8.8441 23.2545 9.38946 22.0184C9.93483 20.7693 10.683 19.6763 11.6339 18.7394C12.5987 17.7896 13.7174 17.0479 14.99 16.5144C16.2625 15.981 17.6189 15.7142 19.0593 15.7142C20.7653 15.7142 22.3454 16.0851 23.7998 16.8267C25.2681 17.5684 26.4777 18.5638 27.4286 19.8129L23.5271 21.7842C22.9398 21.1336 22.2546 20.6391 21.4715 20.3008C20.6884 19.9495 19.8843 19.7739 19.0593 19.7739C17.9126 19.7739 16.8708 20.0666 15.9339 20.6522C15.0109 21.2247 14.2768 21.9859 13.7314 22.9357C13.2 23.8725 12.9344 24.9005 12.9344 26.0195C12.9344 27.1255 13.207 28.1534 13.7524 29.1032C14.2978 30.0401 15.0319 30.7947 15.9549 31.3673C16.8918 31.9398 17.9266 32.226 19.0593 32.226C19.9263 32.226 20.7513 32.0439 21.5344 31.6795C22.3175 31.3152 22.9817 30.8338 23.5271 30.2352Z"/><path fill="#101010" d="M58.1247 29.4156L62.0474 31.4478C61.2272 32.518 60.199 33.3776 58.9628 34.0266C57.7265 34.6755 56.3773 35 54.9152 35C53.2748 35 51.7771 34.5958 50.422 33.7875C49.0787 32.9791 48.003 31.8975 47.1946 30.5427C46.3982 29.1765 46 27.6679 46 26.0171C46 24.7647 46.2318 23.5977 46.6954 22.5161C47.159 21.4231 47.7949 20.4668 48.6033 19.6471C49.4235 18.8159 50.3744 18.167 51.4561 17.7002C52.5378 17.2334 53.6909 17 54.9152 17C56.3773 17 57.7265 17.3245 58.9628 17.9734C60.199 18.6224 61.2272 19.4934 62.0474 20.5863L58.1247 22.6015C57.7087 22.1461 57.2154 21.7932 56.6448 21.5427C56.0861 21.2922 55.5096 21.167 54.9152 21.167C54.0594 21.167 53.2867 21.3947 52.5973 21.8501C51.9078 22.2941 51.361 22.8861 50.9569 23.6262C50.5527 24.3548 50.3506 25.1518 50.3506 26.0171C50.3506 26.871 50.5527 27.6679 50.9569 28.408C51.361 29.1366 51.9078 29.723 52.5973 30.167C53.2867 30.611 54.0594 30.833 54.9152 30.833C55.5334 30.833 56.1218 30.7078 56.6805 30.4573C57.2391 30.1954 57.7206 29.8482 58.1247 29.4156Z"/><path fill="#101010" d="M72.5368 35C70.8964 35 69.3986 34.5958 68.0435 33.7875C66.7003 32.9791 65.6245 31.8975 64.8162 30.5427C64.0197 29.1765 63.6215 27.6679 63.6215 26.0171C63.6215 24.7647 63.8533 23.5977 64.3169 22.5161C64.7805 21.4231 65.4165 20.4668 66.2248 19.6471C67.045 18.8159 67.9959 18.167 69.0777 17.7002C70.1594 17.2334 71.3124 17 72.5368 17C74.1772 17 75.669 17.4042 77.0122 18.2125C78.3673 19.0209 79.4431 20.1082 80.2395 21.4744C81.0479 22.8406 81.452 24.3548 81.452 26.0171C81.452 27.2581 81.2202 28.4194 80.7566 29.5009C80.293 30.5825 79.6511 31.5389 78.8309 32.37C78.0226 33.1898 77.0776 33.833 75.9959 34.2998C74.9261 34.7666 73.773 35 72.5368 35ZM72.5368 30.833C73.4045 30.833 74.1831 30.611 74.8726 30.167C75.562 29.723 76.1029 29.1366 76.4951 28.408C76.8993 27.6793 77.1014 26.8824 77.1014 26.0171C77.1014 25.129 76.8934 24.3207 76.4773 23.592C76.0732 22.852 75.5204 22.2657 74.8191 21.833C74.1296 21.389 73.3689 21.167 72.5368 21.167C71.6809 21.167 70.9083 21.389 70.2188 21.833C69.5294 22.277 68.9826 22.8691 68.5784 23.6091C68.1742 24.3491 67.9722 25.1518 67.9722 26.0171C67.9722 26.9165 68.1802 27.7305 68.5962 28.4592C69.0123 29.1879 69.565 29.7685 70.2545 30.2011C70.9558 30.6224 71.7166 30.833 72.5368 30.833Z"/><path fill="#101010" d="M95.3528 29.4156L99.2755 31.4478C98.4553 32.518 97.4271 33.3776 96.1909 34.0266C94.9546 34.6755 93.6054 35 92.1433 35C90.5029 35 89.0052 34.5958 87.6501 33.7875C86.3068 32.9791 85.2311 31.8975 84.4227 30.5427C83.6263 29.1765 83.2281 27.6679 83.2281 26.0171C83.2281 24.7647 83.4599 23.5977 83.9235 22.5161C84.3871 21.4231 85.023 20.4668 85.8314 19.6471C86.6516 18.8159 87.6025 18.167 88.6842 17.7002C89.7659 17.2334 90.919 17 92.1433 17C93.6054 17 94.9546 17.3245 96.1909 17.9734C97.4271 18.6224 98.4553 19.4934 99.2755 20.5863L95.3528 22.6015C94.9368 22.1461 94.4435 21.7932 93.8729 21.5427C93.3142 21.2922 92.7377 21.167 92.1433 21.167C91.2875 21.167 90.5148 21.3947 89.8254 21.8501C89.1359 22.2941 88.5891 22.8861 88.185 23.6262C87.7808 24.3548 87.5787 25.1518 87.5787 26.0171C87.5787 26.871 87.7808 27.6679 88.185 28.408C88.5891 29.1366 89.1359 29.723 89.8254 30.167C90.5148 30.611 91.2875 30.833 92.1433 30.833C92.7615 30.833 93.3499 30.7078 93.9086 30.4573C94.4672 30.1954 94.9487 29.8482 95.3528 29.4156Z"/><path fill="#101010" d="M115.364 17.4782H119.714V34.556H115.364L115.168 32.4383C114.68 33.2011 114.032 33.8216 113.224 34.2998C112.428 34.7666 111.483 35 110.389 35C109.069 35 107.833 34.7609 106.68 34.2827C105.527 33.8046 104.511 33.1442 103.631 32.3017C102.763 31.4592 102.08 30.4858 101.581 29.3814C101.093 28.277 100.85 27.093 100.85 25.8292C100.85 24.611 101.081 23.4668 101.545 22.3966C102.02 21.3264 102.68 20.3871 103.524 19.5787C104.368 18.7704 105.343 18.1385 106.448 17.6831C107.554 17.2277 108.743 17 110.014 17C111.191 17 112.243 17.2505 113.17 17.7514C114.11 18.2524 114.906 18.8899 115.56 19.6641L115.364 17.4782ZM110.282 30.9867C111.209 30.9867 112.029 30.7647 112.743 30.3207C113.456 29.8767 114.014 29.2789 114.419 28.5275C114.823 27.7647 115.025 26.9279 115.025 26.0171C115.025 25.0949 114.823 24.2581 114.419 23.5066C114.014 22.7438 113.45 22.1404 112.725 21.6964C112.012 21.2524 111.197 21.0304 110.282 21.0304C109.367 21.0304 108.529 21.2581 107.768 21.7135C107.019 22.1575 106.419 22.7552 105.967 23.5066C105.527 24.2581 105.307 25.0949 105.307 26.0171C105.307 26.9393 105.533 27.7761 105.985 28.5275C106.437 29.2789 107.037 29.8767 107.786 30.3207C108.546 30.7647 109.379 30.9867 110.282 30.9867Z"/></svg>