<svg width="32" height="32" viewBox="0 0 32 32" fill="none" xmlns="http://www.w3.org/2000/svg">
<circle cx="16" cy="16" r="16" fill="#31543B"/>
<path d="M20.9131 19.7647L24.381 21.517C23.5358 22.6157 22.4606 23.4947 21.1555 24.154C19.8627 24.8133 18.4581 25.1429 16.9417 25.1429C15.2263 25.1429 13.6601 24.7323 12.2431 23.9111C10.8385 23.0899 9.7136 21.9912 8.86836 20.6148C8.03555 19.2269 7.61914 17.6944 7.61914 16.0174C7.61914 14.7451 7.86153 13.5596 8.3463 12.4609C8.83107 11.3505 9.49608 10.379 10.3413 9.54625C11.199 8.70194 12.1934 8.04268 13.3245 7.56848C14.4557 7.09428 15.6614 6.85718 16.9417 6.85718C18.4581 6.85718 19.8627 7.18681 21.1555 7.84606C22.4606 8.50532 23.5358 9.39011 24.381 10.5004L20.9131 12.2527C20.391 11.6744 19.7819 11.2349 19.0858 10.9342C18.3898 10.6219 17.675 10.4657 16.9417 10.4657C15.9224 10.4657 14.9964 10.726 14.1636 11.2464C13.3432 11.7553 12.6906 12.4319 12.2058 13.2763C11.7335 14.109 11.4973 15.0227 11.4973 16.0174C11.4973 17.0005 11.7397 17.9142 12.2245 18.7585C12.7092 19.5913 13.3618 20.2621 14.1822 20.771C15.015 21.2799 15.9348 21.5343 16.9417 21.5343C17.7123 21.5343 18.4457 21.3724 19.1418 21.0486C19.8379 20.7247 20.4283 20.2968 20.9131 19.7647Z" fill="white"/>
</svg>
