<svg width="16" height="16" viewBox="0 0 16 16" fill="none" xmlns="http://www.w3.org/2000/svg">
<circle cx="8" cy="8" r="8" fill="#EB6E46"/>
<path d="M10.4565 9.88237L12.1905 10.7585C11.7679 11.3079 11.2303 11.7474 10.5777 12.077C9.93136 12.4066 9.22907 12.5714 8.47083 12.5714C7.61316 12.5714 6.83007 12.3662 6.12156 11.9556C5.41926 11.545 4.8568 10.9956 4.43418 10.3074C4.01777 9.61346 3.80957 8.84722 3.80957 8.00869C3.80957 7.37257 3.93076 6.77981 4.17315 6.23043C4.41553 5.67527 4.74804 5.1895 5.17066 4.77313C5.5995 4.35097 6.0967 4.02134 6.66226 3.78424C7.22783 3.54714 7.83069 3.42859 8.47083 3.42859C9.22907 3.42859 9.93136 3.5934 10.5777 3.92303C11.2303 4.25266 11.7679 4.69506 12.1905 5.25022L10.4565 6.12634C10.1955 5.83719 9.89097 5.61744 9.54292 5.46708C9.19488 5.31094 8.83752 5.23287 8.47083 5.23287C7.9612 5.23287 7.49818 5.36299 7.08178 5.62322C6.67159 5.87767 6.3453 6.21597 6.10291 6.63813C5.86674 7.0545 5.74866 7.51136 5.74866 8.00869C5.74866 8.50024 5.86985 8.9571 6.11223 9.37925C6.35462 9.79563 6.68091 10.131 7.0911 10.3855C7.50751 10.6399 7.96742 10.7672 8.47083 10.7672C8.85617 10.7672 9.22285 10.6862 9.57089 10.5243C9.91893 10.3624 10.2141 10.1484 10.4565 9.88237Z" fill="white"/>
</svg>
