<svg xmlns="http://www.w3.org/2000/svg" width="48" height="48" fill="none" viewBox="0 0 48 48"><circle cx="24" cy="24" r="24" fill="#31543B"/><path fill="#fff" d="M31.3696 29.6471L36.5716 32.2755C35.3037 33.9236 33.6909 35.2421 31.7332 36.231C29.7941 37.2199 27.6872 37.7143 25.4125 37.7143C22.8395 37.7143 20.4902 37.0985 18.3647 35.8667C16.2578 34.6349 14.5704 32.9868 13.3025 30.9223C12.0533 28.8404 11.4287 26.5417 11.4287 24.0261C11.4287 22.1177 11.7923 20.3394 12.5194 18.6913C13.2466 17.0258 14.2441 15.5685 15.512 14.3194C16.7985 13.0529 18.2901 12.064 19.9868 11.3527C21.6835 10.6414 23.4921 10.2858 25.4125 10.2858C27.6872 10.2858 29.7941 10.7802 31.7332 11.7691C33.6909 12.758 35.3037 14.0852 36.5716 15.7507L31.3696 18.379C30.5865 17.5116 29.6729 16.8523 28.6288 16.4012C27.5847 15.9328 26.5126 15.6986 25.4125 15.6986C23.8836 15.6986 22.4946 16.089 21.2453 16.8697C20.0148 17.633 19.0359 18.6479 18.3087 19.9144C17.6002 21.1635 17.246 22.5341 17.246 24.0261C17.246 25.5007 17.6095 26.8713 18.3367 28.1378C19.0639 29.3869 20.0427 30.3931 21.2733 31.1565C22.5225 31.9198 23.9023 32.3015 25.4125 32.3015C26.5685 32.3015 27.6686 32.0586 28.7127 31.5728C29.7568 31.0871 30.6424 30.4452 31.3696 29.6471Z"/></svg>