<svg width="66" height="21" viewBox="0 0 66 21" fill="none" xmlns="http://www.w3.org/2000/svg">
<path d="M4.83219 13.1084C3.65409 13.1084 2.73558 12.1579 2.73558 10.7432C2.73558 9.39474 3.65409 8.4 4.83219 8.4C6.01029 8.4 6.94877 9.39474 6.94877 10.7432C6.94877 12.1579 6.03025 13.1084 4.83219 13.1084ZM8.26664 14.6337C9.20512 13.6389 9.68435 12.3347 9.68435 10.7432C9.68435 9.15158 9.20512 7.86948 8.26664 6.87474C7.32816 5.88 6.19 5.39369 4.83219 5.39369C3.47438 5.39369 2.33622 5.88 1.39774 6.87474C0.459258 7.86948 0 9.15158 0 10.7432C0 12.3347 0.459258 13.6389 1.39774 14.6337C2.33622 15.6284 3.47438 16.1147 4.83219 16.1147C6.19 16.1147 7.32816 15.6284 8.26664 14.6337ZM15.693 0C12.9973 0 11.4798 1.74632 11.4798 4.90737V5.61474H9.72262V8.04631H11.4798V15.9379H14.2753V8.04631H16.1522V5.61474H14.2753V4.90737C14.2753 3.60316 14.7545 2.94 15.693 2.94H16.7113V0H15.693ZM20.4636 12.0474C21.1225 12.2463 21.3821 12.4895 21.3821 12.9316C21.3821 13.44 20.8829 13.7716 20.2439 13.7937C19.5051 13.7937 18.8861 13.2189 18.8662 12.6H16.2704C16.2903 13.6832 16.6697 14.5674 17.4485 15.2084C18.2272 15.8495 19.1457 16.1589 20.1641 16.1589C21.2423 16.1589 22.1808 15.8716 22.9795 15.3189C23.7761 14.7813 24.1757 14.0134 24.1967 13.0153L24.1976 12.9316C24.1976 12.3126 24.1177 11.7379 23.299 10.8758C22.9187 10.4758 22.4116 10.156 21.7604 9.95458L20.0842 9.46105C19.565 9.30632 19.2855 9.06316 19.2655 8.68737C19.2456 8.22316 19.6249 7.91368 20.2439 7.91368C20.9428 7.91368 21.2823 8.22316 21.3022 8.82H23.918C23.898 7.64842 23.5187 6.78632 22.7799 6.23369C22.041 5.68106 21.1425 5.39369 20.0842 5.39369C19.1058 5.39369 18.2671 5.70316 17.5483 6.3C16.8295 6.89684 16.47 7.56 16.4501 8.33369L16.4465 8.48833C16.4386 9.03614 16.495 9.38737 16.7696 10.0358C17.089 10.7211 17.9477 11.3179 19.2456 11.6937L20.4636 12.0474ZM27.9299 10.8095C27.9299 9.37263 28.8883 8.31158 30.0864 8.31158C31.2844 8.31158 32.2429 9.32842 32.2429 10.8095C32.2429 12.2463 31.2844 13.2632 30.0864 13.2632C28.8883 13.2632 27.9299 12.3126 27.9299 10.8095ZM25.1144 21H27.87V14.6779C28.3292 15.5842 29.4075 16.1589 30.6055 16.1589C31.8435 16.1589 32.9018 15.6505 33.7804 14.6558C34.679 13.6611 35.1182 12.3568 35.1182 10.7432C35.1182 9.17368 34.679 7.89158 33.7804 6.89684C32.9018 5.9021 31.8435 5.39369 30.6055 5.39369C29.4075 5.39369 28.3292 5.94631 27.87 6.89684V5.61474H25.1144V21ZM52.1041 5.39369C50.7264 5.39369 49.5283 5.9021 48.5299 6.89684C47.5315 7.89158 47.0323 9.17368 47.0323 10.7432C47.0323 12.3126 47.5315 13.6168 48.5299 14.6337C49.5283 15.6505 50.7264 16.1589 52.1041 16.1589C53.7814 16.1589 55.279 15.3411 56.1576 13.9484L53.9012 12.18C53.5019 12.8653 52.9028 13.2189 52.1041 13.2189C51.4851 13.2189 50.946 12.9979 50.4867 12.5337C50.0275 12.0695 49.7879 11.4726 49.7879 10.7432C49.7879 10.063 50.0094 9.50546 50.4347 9.07055L50.4867 9.01895C50.946 8.55473 51.4851 8.33369 52.1041 8.33369C52.9028 8.33369 53.5019 8.68737 53.9012 9.37263L56.1576 7.58211C55.259 6.18947 53.7614 5.39369 52.1041 5.39369ZM63.4641 12.5337C63.0048 13.1747 62.3259 13.5063 61.4274 13.5063C60.3292 13.5063 59.2709 12.9095 59.1311 11.7821H65.9601L65.9815 11.4017C65.9922 11.1994 66 11.0112 66 10.8316C66 9.25725 65.5629 7.97749 64.6886 6.99229L64.6222 6.91895C63.7237 5.90211 62.5855 5.39369 61.2277 5.39369C59.8499 5.39369 58.6918 5.88 57.7533 6.87474C56.8148 7.86948 56.3556 9.15158 56.3556 10.7432C56.3556 12.3347 56.8148 13.6389 57.7533 14.6558C58.6918 15.6505 59.8499 16.1589 61.2277 16.1589C63.2045 16.1589 64.6222 15.4516 65.4808 14.0589L63.4641 12.5337ZM45.6645 13.1747V16.1682H36.5127V13.1747H45.6645ZM63.2045 9.85895H59.171C59.6103 7.49368 62.925 7.51579 63.2045 9.85895Z" fill="#F5F6FA"/>
</svg>
